<?xml version="1.0" encoding="UTF-8" standalone="no"?>
<!-- Created with Inkscape (http://www.inkscape.org/) -->

<svg
   width="210mm"
   height="297mm"
   viewBox="0 0 210 297"
   version="1.1"
   id="svg5"
   inkscape:version="1.1.2 (0a00cf5339, 2022-02-04)"
   sodipodi:docname="defaultBild.svg"
   xmlns:inkscape="http://www.inkscape.org/namespaces/inkscape"
   xmlns:sodipodi="http://sodipodi.sourceforge.net/DTD/sodipodi-0.dtd"
   xmlns="http://www.w3.org/2000/svg"
   xmlns:svg="http://www.w3.org/2000/svg">
  <sodipodi:namedview
     id="namedview7"
     pagecolor="#ffffff"
     bordercolor="#666666"
     borderopacity="1.0"
     inkscape:pageshadow="2"
     inkscape:pageopacity="0.0"
     inkscape:pagecheckerboard="0"
     inkscape:document-units="mm"
     showgrid="false"
     inkscape:zoom="0.7198092"
     inkscape:cx="397.32751"
     inkscape:cy="339.67335"
     inkscape:window-width="1920"
     inkscape:window-height="946"
     inkscape:window-x="0"
     inkscape:window-y="0"
     inkscape:window-maximized="1"
     inkscape:current-layer="layer1" />
  <defs
     id="defs2" />
  <g
     inkscape:label="Ebene 1"
     inkscape:groupmode="layer"
     id="layer1">
    <path
       style="fill:#800000;stroke-width:0.264583"
       d="m 108.30331,232.47444 c -0.0886,-0.14552 -0.35616,-1.21708 -0.59464,-2.38125 -2.02104,-9.86578 -6.79463,-24.32646 -11.048663,-33.46979 -0.44008,-0.94588 -0.99095,-2.19604 -1.22414,-2.77812 -1.252,-3.12509 -6.57247,-13.2442 -10.57266,-20.10834 -2.36868,-4.06455 -8.17034,-13.2019 -15.79146,-24.87083 -0.76033,-1.16417 -1.83808,-2.83104 -2.395,-3.70417 -0.55693,-0.87312 -1.39466,-2.18281 -1.86163,-2.91041 -0.46698,-0.72761 -1.71086,-2.87073 -2.7642,-4.7625 -1.05333,-1.89177 -2.4501,-4.38137 -3.10393,-5.53244 -5.36711,-9.44882 -8.34366,-17.22618 -8.95075,-23.38722 -0.10321,-1.04737 -0.29133,-1.9043 -0.41804,-1.9043 -0.12672,0 -0.2304,-2.67891 -0.2304,-5.95312 0,-3.274223 0.10262,-5.95313 0.22805,-5.95313 0.12542,0 0.30794,-0.779899 0.4056,-1.73311 0.64936,-6.338089 3.14852,-13.889564 6.69424,-20.227306 2.85925,-5.110735 7.31727,-10.659657 11.79748,-14.684375 1.13393,-1.018646 2.23239,-2.006115 2.44103,-2.194374 1.02076,-0.92106 6.31755,-4.460409 8.25879,-5.518582 3.62944,-1.978407 7.71109,-3.695586 11.46798,-4.824651 3.43235,-1.03153 8.8075,-2.146768 10.346863,-2.146768 0.41111,0 0.74747,-0.119063 0.74747,-0.264584 0,-0.168719 2.20486,-0.264583 6.08542,-0.264583 3.34698,0 6.08542,0.101965 6.08542,0.226589 0,0.124624 0.84372,0.305006 1.87494,0.400848 9.92103,0.922062 22.83002,6.455846 30.53651,13.090298 9.97602,8.588259 16.82068,19.805495 19.33837,31.692292 0.34728,1.639613 0.70945,3.820761 0.80483,4.847 0.0954,1.02624 0.27538,1.86589 0.40001,1.86589 0.12462,0 0.22659,2.559843 0.22659,5.688546 0,3.61597 -0.0964,5.68853 -0.26459,5.68853 -0.14552,0 -0.26458,0.40386 -0.26458,0.89746 0,1.00774 -0.87882,5.61515 -1.49422,7.8338 -0.75107,2.70775 -1.9852,5.83953 -3.57734,9.07802 -0.87205,1.77381 -2.29883,4.6747 -3.17062,6.44643 -0.87178,1.77173 -2.3505,4.55454 -3.28603,6.18403 -0.93553,1.62948 -1.70096,3.01244 -1.70096,3.07323 0,0.0608 -0.2195,0.43315 -0.48777,0.82744 -0.26828,0.39429 -0.78599,1.19314 -1.15048,1.77522 -0.36448,0.58208 -1.07401,1.71318 -1.57673,2.51354 -0.98681,1.57106 -4.88757,7.57323 -8.30101,12.7729 -3.95151,6.0193 -8.41552,13.1545 -9.55524,15.27293 -0.35231,0.65485 -1.00955,1.78594 -1.46054,2.51355 -1.88442,3.04024 -5.26327,9.36875 -7.91076,14.81666 -3.5301,7.26413 -4.17379,8.78768 -8.43978,19.97604 -1.43359,3.75986 -4.81011,16.17507 -5.75663,21.16667 -0.12417,0.65485 -0.29823,1.07156 -0.3868,0.92604 z m 4.81298,-112.68381 c 4.01744,-1.06394 7.28132,-2.95254 9.93315,-5.74771 4.02701,-4.2447 5.76598,-8.63482 5.75213,-14.5216 -0.009,-3.749725 -0.62795,-6.268016 -2.3256,-9.459267 -0.65457,-1.230452 -1.11279,-2.362319 -1.01827,-2.515258 0.0945,-0.152938 0.0478,-0.201393 -0.10384,-0.107678 -0.15163,0.09372 -0.84388,-0.494675 -1.53833,-1.307536 -1.65505,-1.937253 -4.56104,-4.102894 -7.01406,-5.227119 -7.79487,-3.572396 -17.640553,-1.720901 -23.450793,4.409961 -3.84317,4.055245 -5.68712,8.641538 -5.71199,14.206897 -0.0273,6.10104 2.07454,11.07404 6.40813,15.16213 3.02358,2.85229 7.033293,4.85514 10.919243,5.45415 2.1264,0.32778 6.26816,0.15146 8.15023,-0.34697 z M 94.721967,83.384766 c 0.0927,-0.149981 -0.0135,-0.194336 -0.24897,-0.103983 -0.45837,0.175892 -0.54223,0.365537 -0.16165,0.365537 0.13694,0 0.32172,-0.1177 0.41062,-0.261554 z"
       id="path854" />
  </g>
</svg>
