<?xml version="1.0" encoding="UTF-8" standalone="no"?>
<!-- Created with Inkscape (http://www.inkscape.org/) -->

<svg
   version="1.1"
   id="svg2"
   width="600"
   height="600"
   viewBox="0 0 600 600"
   xmlns="http://www.w3.org/2000/svg"
   xmlns:svg="http://www.w3.org/2000/svg">
  <defs
     id="defs6" />
  <g
     id="g8">
    <path
       style="fill:#1f7e52;fill-opacity:1"
       d="M 13.008705,301.42528 V 14.925279 h 286.999995 287 v 286.500001 286.5 h -287 H 13.008705 Z M 156.0087,503.18123 c 0,16.90923 0.31266,30.74405 0.69481,30.74405 0.38214,0 8.48214,-7.75007 18,-17.22238 l 17.30519,-17.22237 v -43.75755 -43.75756 l -45.12301,-0.27007 -45.123,-0.27007 -16.993885,17.75 -16.9939,17.75 h 30.36075 30.360745 l -30.243845,30.25605 c -16.63412,16.64083 -30.24385,30.65965 -30.24385,31.15293 0,0.49329 5.7375,6.64654 12.75,13.6739 l 12.75,12.77701 31.249995,-31.17399 31.25,-31.17399 z m 289,10e-5 v -30.74395 l 30.96135,30.94927 c 17.02874,17.02209 31.18895,30.74437 31.46714,30.49395 3.79165,-3.4133 25.57151,-25.48504 25.57151,-25.91421 0,-0.32074 -13.5,-14.04177 -30,-30.49119 -16.5,-16.44941 -30,-30.05245 -30,-30.22897 0,-0.17652 13.53403,-0.32095 30.07563,-0.32095 h 30.07563 l -16.7613,-17.45187 -16.7613,-17.45187 -44.06433,-0.29813 c -24.23538,-0.16397 -44.62683,-0.13749 -45.31433,0.0589 -0.97554,0.27861 -1.25,9.97482 -1.25,44.16083 v 43.80383 l 17.25,17.06656 c 9.4875,9.38661 17.5875,17.07674 18,17.08918 0.4125,0.0124 0.75,-13.81217 0.75,-30.72134 z m -120,-99.12375 c 19.06052,-4.96541 34.00089,-13.25432 47.87333,-26.56014 32.79558,-31.45602 41.87348,-79.55969 22.68258,-120.19477 -5.81205,-12.30653 -11.41669,-20.31019 -21.01179,-30.00568 -27.04937,-27.3324 -66.86411,-37.61802 -103.9807,-26.86205 -55.68273,16.13622 -88.06193,74.68605 -71.98443,130.16616 3.25022,11.21583 7.3058,19.92892 13.83029,29.71333 6.19533,9.29077 19.14534,22.2833 28.47189,28.56537 12.09578,8.14734 28.88328,14.738 43.61883,17.12446 8.48836,1.37472 32.10839,0.23939 40.5,-1.94668 z M 191.76895,145.38366 192.0292,101.34205 174.6616,84.133662 c -9.55218,-9.46461 -17.65679,-17.208383 -18.01025,-17.208383 -0.35346,0 -0.64265,13.834778 -0.64265,30.743949 V 128.41318 L 125.00803,97.424608 94.007375,66.436045 l -13.24391,13.243901 -13.2439,13.243902 30.47342,30.485712 30.473425,30.48571 -30.317275,0.26501 -30.31727,0.265 17.19709,17.76022 17.197095,17.76022 44.64133,-0.26022 44.64132,-0.26022 z m 324.11649,26.79162 17.072,-17.75 -30.20322,-0.265 -30.20323,-0.26501 30.47342,-30.48571 30.47342,-30.485712 -13.2439,-13.243902 -13.2439,-13.243901 -31.02174,30.994613 -31.02174,30.994622 0.27107,-31.209872 0.27108,-31.209865 -4,3.692007 c -2.2,2.030604 -10.4125,9.994224 -18.25,17.696933 l -14.25,14.004927 v 43.59627 c 0,23.97795 0.3,43.89627 0.66667,44.26293 0.36666,0.36667 20.57273,0.66667 44.90237,0.66667 h 44.23571 z"
       id="path30" />
  </g>
</svg>
